# xmcd
#
# Track frame offsets:
#	150
#	20066
#	34573
#	51735
#	71458
#	93005
#	109784
#	128267
#	147111
#	163567
#	182262
#	199422
#	216914
#	233503
#	249768
#	268719
#	286872
#	302922
#	320109
#
# Disc length: 4437 seconds
#
# Revision: 1
# Processed by: cddbd v1.5.1PL0 Copyright (c) Steve Scherf et al.
# Submitted via: audiograbber 1.83.01
#
DISCID=07115313
DTITLE=Various Artist - NuMusic Traxx #45
DYEAR=2000
DGENRE=Top 40
TTITLE0=Sonique - Sky
TTITLE1=N sync - It's Gonna Be Me
TTITLE2=Madison Avenue - Don't Call Me Baby
TTITLE3=Toni Braxton - He Wasn't Man Enough
TTITLE4=Eminem - The Real Slim Shady
TTITLE5=Brian McKnight - 6,8,12
TTITLE6=Next - Wifey
TTITLE7=Jon Secada - Stop
TTITLE8=Jessica Simpson - I Think I'm In Love With You
TTITLE9=Gigi D'agostino - I'll Fly With You (L'amour Toujours)
TTITLE10=Tim James - I'll Be Your Secret
TTITLE11=Dstiny's Child - Jumpin', Jumpin;
TTITLE12=Collin Raye - Couldn't Last A Moment
TTITLE13=Montgomery Gentry - Self Made Man
TTITLE14=Dixie Chicks - Cold Day In July
TTITLE15=Tim McGraw - Some Things Never Change
TTITLE16=Hanson - If Only
TTITLE17=Buffalo Nickle - Good Day
TTITLE18=SR 71 - Right Now
EXTD=
EXTT0=
EXTT1=
EXTT2=
EXTT3=
EXTT4=
EXTT5=
EXTT6=
EXTT7=
EXTT8=
EXTT9=
EXTT10=
EXTT11=
EXTT12=
EXTT13=
EXTT14=
EXTT15=
EXTT16=
EXTT17=
EXTT18=
PLAYORDER=
